<svg width="21" height="23" viewBox="0 0 21 23" fill="none" xmlns="http://www.w3.org/2000/svg">
<path d="M10.5 22.5729C10.9375 22.5628 11.3573 22.3984 11.6852 22.1086C12.0131 21.8188 12.2279 21.4225 12.2917 20.9896H8.63892C8.70452 21.4342 8.92942 21.8399 9.27176 22.1312C9.61411 22.4224 10.0506 22.5794 10.5 22.5729Z" fill="black"/>
<path d="M20.5765 18.0938C19.9068 17.4968 19.3206 16.8124 18.8334 16.059C18.3017 15.0191 17.9829 13.8835 17.8959 12.7188V9.28819C17.8931 8.87149 17.856 8.45573 17.7848 8.04514C17.2382 7.93588 16.7129 7.73889 16.2293 7.46181C16.4136 8.05545 16.5073 8.67353 16.5071 9.29514V12.7257C16.5922 14.1465 16.983 15.5323 17.6529 16.7882C18.1323 17.5479 18.7012 18.2474 19.3473 18.8715H1.56261C2.20873 18.2474 2.77761 17.5479 3.25705 16.7882C3.92692 15.5323 4.31777 14.1465 4.40289 12.7257V9.28819C4.39923 8.48451 4.55414 7.68799 4.85875 6.94425C5.16336 6.20051 5.61167 5.52416 6.17804 4.95393C6.7444 4.3837 7.41768 3.93079 8.15932 3.62112C8.90097 3.31146 9.69641 3.15112 10.5001 3.14931C11.6763 3.15025 12.8262 3.49809 13.8057 4.14931C13.6977 3.75277 13.6371 3.34483 13.6251 2.93403V2.49653C12.9 2.13983 12.121 1.9052 11.3196 1.80208V0.927083C11.3196 0.681206 11.2219 0.445398 11.048 0.271536C10.8742 0.0976747 10.6383 0 10.3925 0C10.1466 0 9.91079 0.0976747 9.73692 0.271536C9.56306 0.445398 9.46539 0.681206 9.46539 0.927083V1.83681C7.67075 2.08997 6.02829 2.98385 4.84123 4.35343C3.65418 5.723 3.0027 7.47579 3.00705 9.28819V12.7188C2.92008 13.8835 2.60134 15.0191 2.06955 16.059C1.591 16.8107 1.01413 17.495 0.354275 18.0938C0.2802 18.1588 0.220832 18.2389 0.180121 18.3287C0.13941 18.4185 0.118289 18.516 0.118164 18.6146V19.559C0.118164 19.7432 0.191329 19.9198 0.321562 20.0501C0.451796 20.1803 0.628431 20.2535 0.812609 20.2535H20.1182C20.3023 20.2535 20.479 20.1803 20.6092 20.0501C20.7394 19.9198 20.8126 19.7432 20.8126 19.559V18.6146C20.8125 18.516 20.7914 18.4185 20.7507 18.3287C20.7099 18.2389 20.6506 18.1588 20.5765 18.0938Z" fill="black"/>
</svg>
