<svg width="29" height="29" viewBox="0 0 29 29" fill="none" xmlns="http://www.w3.org/2000/svg">
<path d="M11.0919 21.7917H17.9067H11.0919ZM14.5 1.375V2.83333V1.375ZM23.7808 5.21917L22.7498 6.25021L23.7808 5.21917ZM27.625 14.5H26.1667H27.625ZM2.83333 14.5H1.375H2.83333ZM6.25021 6.25021L5.21917 5.21917L6.25021 6.25021ZM9.34333 19.6567C8.32377 18.6368 7.6295 17.3376 7.3483 15.9232C7.06711 14.5088 7.21162 13.0428 7.76356 11.7105C8.31551 10.3782 9.2501 9.23956 10.4492 8.43843C11.6482 7.63729 13.0579 7.20969 14.5 7.20969C15.9421 7.20969 17.3518 7.63729 18.5508 8.43843C19.7499 9.23956 20.6845 10.3782 21.2364 11.7105C21.7884 13.0428 21.9329 14.5088 21.6517 15.9232C21.3705 17.3376 20.6762 18.6368 19.6567 19.6567L18.8575 20.4544C18.4006 20.9113 18.0382 21.4538 17.791 22.0509C17.5438 22.6479 17.4166 23.2878 17.4167 23.934V24.7083C17.4167 25.4819 17.1094 26.2237 16.5624 26.7707C16.0154 27.3177 15.2735 27.625 14.5 27.625C13.7265 27.625 12.9846 27.3177 12.4376 26.7707C11.8906 26.2237 11.5833 25.4819 11.5833 24.7083V23.934C11.5833 22.6288 11.0642 21.376 10.1425 20.4544L9.34333 19.6567Z" stroke="#F0F4F5" stroke-width="2" stroke-linecap="round" stroke-linejoin="round"/>
</svg>
