<svg width="25" height="25" viewBox="0 0 25 25" fill="none" xmlns="http://www.w3.org/2000/svg">
<path d="M16.2291 12.5C16.2291 14.5625 14.5624 16.2292 12.4999 16.2292C10.4374 16.2292 8.77075 14.5625 8.77075 12.5C8.77075 10.4375 10.4374 8.77083 12.4999 8.77083C14.5624 8.77083 16.2291 10.4375 16.2291 12.5Z" stroke="#077685" stroke-width="1.5" stroke-linecap="round" stroke-linejoin="round"/>
<path d="M12.5001 21.1146C16.1772 21.1146 19.6042 18.9479 21.9897 15.1979C22.9272 13.7292 22.9272 11.2604 21.9897 9.79167C19.6042 6.04167 16.1772 3.875 12.5001 3.875C8.823 3.875 5.39591 6.04167 3.0105 9.79167C2.073 11.2604 2.073 13.7292 3.0105 15.1979C5.39591 18.9479 8.823 21.1146 12.5001 21.1146Z" stroke="#077685" stroke-width="1.5" stroke-linecap="round" stroke-linejoin="round"/>
</svg>
