<svg width="32" height="32" viewBox="0 0 32 32" fill="none" xmlns="http://www.w3.org/2000/svg">
<path d="M13.6139 0.488953H22.3639V3.40562H13.6139V0.488953ZM28.225 9.80624L30.3162 7.71499L28.2542 5.65291L26.1644 7.7427C23.8746 5.90785 21.0356 4.89422 18.1015 4.86408C15.1675 4.83394 12.3082 5.78902 9.98123 7.57645L12.0521 9.67645C13.7822 8.4476 15.8508 7.78527 17.9729 7.78062L17.9875 7.78208V17.9612L25.2106 25.1917C23.7846 26.6243 21.9655 27.6014 19.9837 27.9992C18.0019 28.397 15.9466 28.1976 14.0782 27.4263C12.2098 26.6549 10.6124 25.3463 9.48847 23.6662C8.36451 21.9862 7.76453 20.0103 7.76457 17.989H12.1396L6.30623 12.1556L0.4729 17.989H4.8479C4.84591 20.0863 5.34657 22.1535 6.30793 24.0175C7.26928 25.8815 8.66334 27.488 10.3733 28.7024C12.0833 29.9168 14.0594 30.7037 16.1361 30.9972C18.2128 31.2907 20.3295 31.0823 22.3091 30.3894C24.2886 29.6965 26.0733 28.5393 27.5136 27.0147C28.9539 25.4902 30.0079 23.6426 30.5872 21.6269C31.1666 19.6112 31.2544 17.486 30.8434 15.4293C30.4324 13.3727 29.5345 11.4445 28.225 9.80624Z" fill="#F0F4F5"/>
</svg>
