<svg width="30" height="31" viewBox="0 0 30 31" fill="none" xmlns="http://www.w3.org/2000/svg">
<path d="M21.1562 27.5625L18.3125 24.7188L16.7812 26.25L21.1562 30.625L29.9062 21.875L28.375 20.3438L21.1562 27.5625Z" fill="#F0F4F5"/>
<path d="M12.8438 30.625L1.46875 23.8438C0.8125 23.4062 0.375 22.75 0.375 21.9844V8.64062C0.375 7.875 0.8125 7.10938 1.46875 6.78125L12.4062 0.328125C12.7344 0.109375 13.0625 0 13.5 0C13.9375 0 14.2656 0.109375 14.5938 0.328125L25.5312 6.78125C26.1875 7.21875 26.625 7.875 26.625 8.64062V15.3125H24.4375V8.64062L13.5 2.1875L2.5625 8.64062V21.9844L14.0469 28.7656L12.8438 30.625Z" fill="#F0F4F5"/>
</svg>
