<svg width="19" height="18" viewBox="0 0 19 18" fill="none" xmlns="http://www.w3.org/2000/svg">
<path d="M7.94435 0C11.9485 0 15.1944 3.24594 15.1944 7.25C15.1944 8.9819 14.5871 10.5719 13.5739 11.8188L18.4747 16.7197C18.7676 17.0126 18.7676 17.4874 18.4747 17.7803C18.2085 18.0466 17.7918 18.0708 17.4982 17.8529L17.4141 17.7803L12.5132 12.8795C11.2663 13.8927 9.67625 14.5 7.94435 14.5C3.94028 14.5 0.694336 11.2541 0.694336 7.25C0.694336 3.24594 3.94028 0 7.94435 0ZM7.94435 1.5C4.7687 1.5 2.19434 4.07436 2.19434 7.25C2.19434 10.4256 4.7687 13 7.94435 13C11.12 13 13.6944 10.4256 13.6944 7.25C13.6944 4.07436 11.12 1.5 7.94435 1.5Z" fill="#7B7B7B"/>
</svg>
