<svg width="32" height="29" viewBox="0 0 32 29" fill="none" xmlns="http://www.w3.org/2000/svg">
<path d="M24.3333 27.25V24.3333C24.3333 22.7862 23.7188 21.3025 22.6248 20.2085C21.5308 19.1146 20.0471 18.5 18.5 18.5H6.83333C5.28624 18.5 3.80251 19.1146 2.70854 20.2085C1.61458 21.3025 1 22.7862 1 24.3333V27.25" stroke="#F0F4F5" stroke-width="2" stroke-linecap="round" stroke-linejoin="round"/>
<path d="M12.6667 12.6667C15.8884 12.6667 18.5 10.055 18.5 6.83333C18.5 3.61167 15.8884 1 12.6667 1C9.44505 1 6.83337 3.61167 6.83337 6.83333C6.83337 10.055 9.44505 12.6667 12.6667 12.6667Z" stroke="#F0F4F5" stroke-width="2" stroke-linecap="round" stroke-linejoin="round"/>
<path d="M33.0834 27.25V24.3333C33.0824 23.0408 32.6522 21.7853 31.8604 20.7638C31.0685 19.7423 29.9598 19.0127 28.7084 18.6896" stroke="#F0F4F5" stroke-width="2" stroke-linecap="round" stroke-linejoin="round"/>
<path d="M22.875 1.18958C24.1298 1.51085 25.2419 2.2406 26.0361 3.26378C26.8304 4.28696 27.2614 5.54537 27.2614 6.84062C27.2614 8.13586 26.8304 9.39427 26.0361 10.4175C25.2419 11.4406 24.1298 12.1704 22.875 12.4917" stroke="#F0F4F5" stroke-width="2" stroke-linecap="round" stroke-linejoin="round"/>
</svg>
