<svg width="31" height="26" viewBox="0 0 31 26" fill="none" xmlns="http://www.w3.org/2000/svg">
<path d="M1.22144 24.5177C8.51383 22.5227 27.2476 21.1256 28.6855 21.3692C30.1234 21.6127 29.7428 23.16 28.9845 23.9548M2.47341 5.61916L6.17758 20.5583C6.20174 20.6545 6.25433 20.7412 6.32848 20.8071C6.40264 20.873 6.49492 20.915 6.5933 20.9277C6.69168 20.9404 6.7916 20.9231 6.88002 20.8781C6.96845 20.8332 7.04129 20.7627 7.08904 20.6757L17.8377 1.10416L2.47341 5.61916ZM25.7214 5.49374C28.9655 5.82624 28.4245 -2.12022 21.5725 2.91541C14.9152 7.80812 11.2905 19.4339 20.1141 19.4339C25.5975 19.4339 28.4252 14.5602 28.4252 14.5602L25.7214 5.49374Z" stroke="#F0F4F5" stroke-linecap="round" stroke-linejoin="round"/>
</svg>
